<mxfile host="app.diagrams.net" agent="Mozilla/5.0 (Windows NT 10.0; Win64; x64) AppleWebKit/537.36 (KHTML, like Gecko) Chrome/128.0.0.0 Safari/537.36 Edg/128.0.0.0" version="24.7.12">
  <diagram name="Page-1" id="Zjmr0gaHATwRoAC2WolZ">
    <mxGraphModel dx="2421" dy="1984" grid="1" gridSize="10" guides="1" tooltips="1" connect="1" arrows="1" fold="1" page="1" pageScale="1" pageWidth="827" pageHeight="1169" math="0" shadow="0">
      <root>
        <mxCell id="0" />
        <mxCell id="1" parent="0" />
        <mxCell id="LnlE2vB2DdziIzQnd_Bp-1" value="&lt;p style=&quot;margin:0px;margin-top:4px;margin-left:7px;text-align:left;&quot;&gt;&lt;b&gt;Chaine d&#39;énergie et d&#39;information d&#39;une bouilloire électrique&lt;/b&gt;&lt;/p&gt;" style="html=1;shape=mxgraph.sysml.package;overflow=fill;labelX=363;strokeWidth=2;align=center;" vertex="1" parent="1">
          <mxGeometry x="-240" y="-10" width="1050" height="750" as="geometry" />
        </mxCell>
        <mxCell id="LnlE2vB2DdziIzQnd_Bp-2" value="" style="html=1;whiteSpace=wrap;" vertex="1" parent="1">
          <mxGeometry x="-190" y="30" width="850" height="300" as="geometry" />
        </mxCell>
        <mxCell id="LnlE2vB2DdziIzQnd_Bp-3" value="" style="html=1;whiteSpace=wrap;" vertex="1" parent="1">
          <mxGeometry x="-190" y="370" width="970" height="320" as="geometry" />
        </mxCell>
        <mxCell id="LnlE2vB2DdziIzQnd_Bp-4" value="" style="html=1;shadow=0;dashed=0;align=center;verticalAlign=middle;shape=mxgraph.arrows2.arrow;dy=0.6;dx=40;notch=3;" vertex="1" parent="1">
          <mxGeometry x="-430" y="155" width="320" height="20" as="geometry" />
        </mxCell>
        <mxCell id="LnlE2vB2DdziIzQnd_Bp-5" value="Doigt" style="text;align=center;fontStyle=1;verticalAlign=middle;spacingLeft=3;spacingRight=3;strokeColor=none;rotatable=0;points=[[0,0.5],[1,0.5]];portConstraint=eastwest;html=1;" vertex="1" parent="1">
          <mxGeometry x="-380" y="129" width="110" height="26" as="geometry" />
        </mxCell>
        <mxCell id="LnlE2vB2DdziIzQnd_Bp-6" value="acquérir" style="html=1;whiteSpace=wrap;" vertex="1" parent="1">
          <mxGeometry x="-110" y="80" width="260" height="150" as="geometry" />
        </mxCell>
        <mxCell id="LnlE2vB2DdziIzQnd_Bp-7" value="" style="html=1;shadow=0;dashed=0;align=center;verticalAlign=middle;shape=mxgraph.arrows2.arrow;dy=0.6;dx=40;notch=0;" vertex="1" parent="1">
          <mxGeometry x="150" y="155" width="110" height="20" as="geometry" />
        </mxCell>
        <mxCell id="LnlE2vB2DdziIzQnd_Bp-9" value="Traiter" style="html=1;whiteSpace=wrap;" vertex="1" parent="1">
          <mxGeometry x="260" y="80" width="260" height="150" as="geometry" />
        </mxCell>
        <mxCell id="LnlE2vB2DdziIzQnd_Bp-17" value="Distribuer" style="html=1;whiteSpace=wrap;" vertex="1" parent="1">
          <mxGeometry x="70" y="426.25" width="200" height="153.75" as="geometry" />
        </mxCell>
        <mxCell id="LnlE2vB2DdziIzQnd_Bp-18" value="Alimenter" style="html=1;whiteSpace=wrap;" vertex="1" parent="1">
          <mxGeometry x="-160" y="426.25" width="200" height="153.75" as="geometry" />
        </mxCell>
        <mxCell id="LnlE2vB2DdziIzQnd_Bp-19" value="Convertir" style="html=1;whiteSpace=wrap;" vertex="1" parent="1">
          <mxGeometry x="300" y="426.25" width="200" height="153.75" as="geometry" />
        </mxCell>
        <mxCell id="LnlE2vB2DdziIzQnd_Bp-20" value="Transmettre" style="html=1;whiteSpace=wrap;" vertex="1" parent="1">
          <mxGeometry x="530" y="426.25" width="200" height="153.75" as="geometry" />
        </mxCell>
        <mxCell id="LnlE2vB2DdziIzQnd_Bp-31" value="" style="endArrow=none;html=1;rounded=0;exitX=0.5;exitY=1;exitDx=0;exitDy=0;" edge="1" parent="1" source="LnlE2vB2DdziIzQnd_Bp-6">
          <mxGeometry relative="1" as="geometry">
            <mxPoint x="30" y="340" as="sourcePoint" />
            <mxPoint x="20" y="260" as="targetPoint" />
          </mxGeometry>
        </mxCell>
        <mxCell id="LnlE2vB2DdziIzQnd_Bp-35" value="" style="endArrow=none;html=1;rounded=0;entryX=0.5;entryY=1;entryDx=0;entryDy=0;" edge="1" parent="1" target="LnlE2vB2DdziIzQnd_Bp-9">
          <mxGeometry relative="1" as="geometry">
            <mxPoint x="390" y="260" as="sourcePoint" />
            <mxPoint x="30" y="280" as="targetPoint" />
          </mxGeometry>
        </mxCell>
        <mxCell id="LnlE2vB2DdziIzQnd_Bp-36" value="" style="endArrow=none;html=1;rounded=0;entryX=0.5;entryY=1;entryDx=0;entryDy=0;exitX=0.674;exitY=0.774;exitDx=0;exitDy=0;exitPerimeter=0;" edge="1" parent="1">
          <mxGeometry relative="1" as="geometry">
            <mxPoint x="-60.5" y="620" as="sourcePoint" />
            <mxPoint x="-60.5" y="580" as="targetPoint" />
          </mxGeometry>
        </mxCell>
        <mxCell id="LnlE2vB2DdziIzQnd_Bp-38" value="" style="endArrow=none;html=1;rounded=0;exitX=0.5;exitY=1;exitDx=0;exitDy=0;" edge="1" parent="1" source="LnlE2vB2DdziIzQnd_Bp-17">
          <mxGeometry relative="1" as="geometry">
            <mxPoint x="-60.5" y="620" as="sourcePoint" />
            <mxPoint x="170" y="620" as="targetPoint" />
          </mxGeometry>
        </mxCell>
        <mxCell id="LnlE2vB2DdziIzQnd_Bp-40" value="" style="endArrow=none;html=1;rounded=0;exitX=0.5;exitY=1;exitDx=0;exitDy=0;" edge="1" parent="1">
          <mxGeometry relative="1" as="geometry">
            <mxPoint x="170" y="580" as="sourcePoint" />
            <mxPoint x="170" y="620" as="targetPoint" />
          </mxGeometry>
        </mxCell>
        <mxCell id="LnlE2vB2DdziIzQnd_Bp-41" value="" style="endArrow=none;html=1;rounded=0;exitX=0.5;exitY=1;exitDx=0;exitDy=0;" edge="1" parent="1" source="LnlE2vB2DdziIzQnd_Bp-19">
          <mxGeometry relative="1" as="geometry">
            <mxPoint x="180" y="590" as="sourcePoint" />
            <mxPoint x="400" y="620" as="targetPoint" />
            <Array as="points">
              <mxPoint x="400" y="610" />
            </Array>
          </mxGeometry>
        </mxCell>
        <mxCell id="LnlE2vB2DdziIzQnd_Bp-42" value="" style="endArrow=none;html=1;rounded=0;exitX=0.5;exitY=1;exitDx=0;exitDy=0;" edge="1" parent="1" source="LnlE2vB2DdziIzQnd_Bp-20">
          <mxGeometry relative="1" as="geometry">
            <mxPoint x="190" y="600" as="sourcePoint" />
            <mxPoint x="630" y="620" as="targetPoint" />
            <Array as="points">
              <mxPoint x="630" y="610" />
            </Array>
          </mxGeometry>
        </mxCell>
        <mxCell id="LnlE2vB2DdziIzQnd_Bp-43" value="Chaine d&#39;Information" style="whiteSpace=wrap;html=1;align=center;" vertex="1" parent="1">
          <mxGeometry x="155" y="30" width="100" height="40" as="geometry" />
        </mxCell>
        <mxCell id="LnlE2vB2DdziIzQnd_Bp-44" value="Chaine d&#39;Energie" style="whiteSpace=wrap;html=1;align=center;" vertex="1" parent="1">
          <mxGeometry x="245" y="370" width="100" height="40" as="geometry" />
        </mxCell>
        <mxCell id="LnlE2vB2DdziIzQnd_Bp-45" value="" style="edgeStyle=none;html=1;endArrow=block;endFill=0;endSize=12;verticalAlign=bottom;rounded=0;entryX=0.5;entryY=0;entryDx=0;entryDy=0;fillColor=#00FF80;" edge="1" parent="1" target="LnlE2vB2DdziIzQnd_Bp-17">
          <mxGeometry width="160" relative="1" as="geometry">
            <mxPoint x="510" y="164.5" as="sourcePoint" />
            <mxPoint x="670" y="164.5" as="targetPoint" />
            <Array as="points">
              <mxPoint x="580" y="165" />
              <mxPoint x="580" y="340" />
              <mxPoint x="170" y="340" />
            </Array>
          </mxGeometry>
        </mxCell>
        <mxCell id="LnlE2vB2DdziIzQnd_Bp-49" value="" style="edgeStyle=segmentEdgeStyle;endArrow=classic;html=1;curved=0;rounded=0;endSize=8;startSize=8;sourcePerimeterSpacing=0;targetPerimeterSpacing=0;exitX=0.5;exitY=0;exitDx=0;exitDy=0;entryX=-0.004;entryY=0.7;entryDx=0;entryDy=0;entryPerimeter=0;" edge="1" parent="1" source="LnlE2vB2DdziIzQnd_Bp-20" target="LnlE2vB2DdziIzQnd_Bp-6">
          <mxGeometry width="100" relative="1" as="geometry">
            <mxPoint x="-370" y="400" as="sourcePoint" />
            <mxPoint x="-270" y="440" as="targetPoint" />
            <Array as="points">
              <mxPoint x="630" y="360" />
              <mxPoint x="-270" y="360" />
              <mxPoint x="-270" y="185" />
            </Array>
          </mxGeometry>
        </mxCell>
        <mxCell id="LnlE2vB2DdziIzQnd_Bp-51" value="Réseau electrique&lt;div&gt;&lt;br&gt;&lt;/div&gt;" style="text;html=1;align=center;verticalAlign=middle;resizable=0;points=[];autosize=1;strokeColor=none;fillColor=none;" vertex="1" parent="1">
          <mxGeometry x="-120" y="620" width="120" height="40" as="geometry" />
        </mxCell>
        <mxCell id="LnlE2vB2DdziIzQnd_Bp-52" value="Communicateur de puissance" style="text;html=1;align=center;verticalAlign=middle;resizable=0;points=[];autosize=1;strokeColor=none;fillColor=none;" vertex="1" parent="1">
          <mxGeometry x="80" y="620" width="180" height="30" as="geometry" />
        </mxCell>
        <mxCell id="LnlE2vB2DdziIzQnd_Bp-53" value="Résistance chauffante" style="text;html=1;align=center;verticalAlign=middle;resizable=0;points=[];autosize=1;strokeColor=none;fillColor=none;" vertex="1" parent="1">
          <mxGeometry x="330" y="620" width="140" height="30" as="geometry" />
        </mxCell>
        <mxCell id="LnlE2vB2DdziIzQnd_Bp-54" value="Pot" style="text;html=1;align=center;verticalAlign=middle;resizable=0;points=[];autosize=1;strokeColor=none;fillColor=none;" vertex="1" parent="1">
          <mxGeometry x="610" y="620" width="40" height="30" as="geometry" />
        </mxCell>
      </root>
    </mxGraphModel>
  </diagram>
</mxfile>
